<svg id="exit_to_app-24px" xmlns="http://www.w3.org/2000/svg" width="19" height="19" viewBox="0 0 19 19">
  <defs>
    <style>
      .cls-1 {
        fill: #4a4a4a;
      }
    </style>
  </defs>
  <path id="Trazado_1677" data-name="Trazado 1677" class="cls-1" d="M10.484,16.289l1.488,1.488L17.25,12.5,11.972,7.222,10.484,8.711l2.723,2.734H3v2.111H13.207ZM19.889,3H5.111A2.111,2.111,0,0,0,3,5.111V9.333H5.111V5.111H19.889V19.889H5.111V15.667H3v4.222A2.111,2.111,0,0,0,5.111,22H19.889A2.117,2.117,0,0,0,22,19.889V5.111A2.117,2.117,0,0,0,19.889,3Z" transform="translate(-3 -3)"/>
</svg>
